<svg width="136" height="49" viewBox="0 0 136 49" fill="none" xmlns="http://www.w3.org/2000/svg">
<path d="M8.02883 0.763916C11.7728 0.763916 14.6408 1.43592 16.6328 2.77992C18.6248 4.09992 19.6208 6.16392 19.6208 8.97192C19.6208 10.7239 19.2128 12.1519 18.3968 13.2559C17.6048 14.3359 16.4528 15.1879 14.9408 15.8119C15.4448 16.4359 15.9728 17.1559 16.5248 17.9719C17.0768 18.7639 17.6168 19.6039 18.1448 20.4919C18.6968 21.3559 19.2248 22.2679 19.7288 23.2279C20.2328 24.1639 20.7008 25.0879 21.1328 25.9999H14.8328C14.3768 25.1839 13.9088 24.3559 13.4288 23.5159C12.9728 22.6759 12.4928 21.8599 11.9888 21.0679C11.5088 20.2759 11.0288 19.5319 10.5488 18.8359C10.0688 18.1159 9.58883 17.4679 9.10883 16.8919H6.33683V25.9999H0.720825V1.41192C1.94483 1.17192 3.20483 1.00392 4.50082 0.907917C5.82083 0.811917 6.99683 0.763916 8.02883 0.763916ZM8.35283 5.55192C7.94483 5.55192 7.57282 5.56392 7.23682 5.58792C6.92483 5.61192 6.62483 5.63592 6.33683 5.65992V12.4279H7.92083C10.0328 12.4279 11.5448 12.1639 12.4568 11.6359C13.3688 11.1079 13.8248 10.2079 13.8248 8.93592C13.8248 7.71192 13.3568 6.84792 12.4208 6.34392C11.5088 5.81592 10.1528 5.55192 8.35283 5.55192Z" fill="white"/>
<path d="M63.6412 11.3119C64.6492 9.60792 65.6092 7.90392 66.5212 6.19992C67.4332 4.49592 68.2732 2.77992 69.0412 1.05192H75.2332C73.8652 3.73992 72.4492 6.34392 70.9852 8.86392C69.5212 11.3839 67.9732 13.9159 66.3412 16.4599V25.9999H60.7252V16.5319C59.0932 13.9879 57.5332 11.4439 56.0452 8.89992C54.5812 6.35592 53.1652 3.73992 51.7972 1.05192H58.3132C59.0812 2.77992 59.9092 4.49592 60.7972 6.19992C61.6852 7.90392 62.6332 9.60792 63.6412 11.3119Z" fill="white"/>
<path d="M115.355 1.05192C115.787 1.84392 116.279 2.82792 116.831 4.00392C117.407 5.15592 117.995 6.41592 118.595 7.78392C119.219 9.12792 119.831 10.5079 120.431 11.9239C121.031 13.3399 121.595 14.6719 122.123 15.9199C122.651 14.6719 123.215 13.3399 123.815 11.9239C124.415 10.5079 125.015 9.12792 125.615 7.78392C126.239 6.41592 126.827 5.15592 127.379 4.00392C127.955 2.82792 128.459 1.84392 128.891 1.05192H134.003C134.243 2.70792 134.459 4.56792 134.651 6.63192C134.867 8.67192 135.047 10.8079 135.191 13.0399C135.359 15.2479 135.503 17.4679 135.623 19.6999C135.767 21.9319 135.887 24.0319 135.983 25.9999H130.511C130.439 23.5759 130.343 20.9359 130.223 18.0799C130.103 15.2239 129.923 12.3439 129.683 9.43992C129.251 10.4479 128.771 11.5639 128.243 12.7879C127.715 14.0119 127.187 15.2359 126.659 16.4599C126.155 17.6839 125.663 18.8599 125.183 19.9879C124.703 21.0919 124.295 22.0399 123.959 22.8319H120.035C119.699 22.0399 119.291 21.0919 118.811 19.9879C118.331 18.8599 117.827 17.6839 117.299 16.4599C116.795 15.2359 116.279 14.0119 115.751 12.7879C115.223 11.5639 114.743 10.4479 114.311 9.43992C114.071 12.3439 113.891 15.2239 113.771 18.0799C113.651 20.9359 113.555 23.5759 113.483 25.9999H108.011C108.107 24.0319 108.215 21.9319 108.335 19.6999C108.479 17.4679 108.623 15.2479 108.767 13.0399C108.935 10.8079 109.115 8.67192 109.307 6.63192C109.523 4.56792 109.751 2.70792 109.991 1.05192H115.355Z" fill="white"/>
<path d="M12.5608 42.892C12.5608 42.34 12.4368 41.9 12.1888 41.572C11.9408 41.236 11.5728 41.068 11.0848 41.068C10.9248 41.068 10.7768 41.076 10.6408 41.092C10.5048 41.1 10.3928 41.112 10.3048 41.128V44.356C10.4168 44.428 10.5608 44.488 10.7368 44.536C10.9208 44.584 11.1048 44.608 11.2888 44.608C12.1368 44.608 12.5608 44.036 12.5608 42.892ZM14.3848 42.844C14.3848 43.332 14.3248 43.776 14.2048 44.176C14.0848 44.576 13.9088 44.92 13.6768 45.208C13.4448 45.496 13.1568 45.72 12.8128 45.88C12.4688 46.04 12.0728 46.12 11.6248 46.12C11.3768 46.12 11.1448 46.096 10.9288 46.048C10.7128 46 10.5048 45.932 10.3048 45.844V48.22H8.51685V39.904C8.67685 39.856 8.86085 39.812 9.06885 39.772C9.27685 39.724 9.49285 39.684 9.71685 39.652C9.94885 39.62 10.1808 39.596 10.4128 39.58C10.6528 39.556 10.8808 39.544 11.0968 39.544C11.6168 39.544 12.0808 39.624 12.4888 39.784C12.8968 39.936 13.2408 40.156 13.5208 40.444C13.8008 40.724 14.0128 41.068 14.1568 41.476C14.3088 41.884 14.3848 42.34 14.3848 42.844Z" fill="white"/>
<path d="M19.539 46V36.976L21.327 36.688V39.712C21.447 39.672 21.599 39.636 21.783 39.604C21.975 39.564 22.159 39.544 22.335 39.544C22.847 39.544 23.271 39.616 23.607 39.76C23.951 39.896 24.223 40.092 24.423 40.348C24.631 40.604 24.775 40.908 24.855 41.26C24.943 41.612 24.987 42.004 24.987 42.436V46H23.199V42.652C23.199 42.076 23.123 41.668 22.971 41.428C22.827 41.188 22.555 41.068 22.155 41.068C21.995 41.068 21.843 41.084 21.699 41.116C21.563 41.14 21.439 41.168 21.327 41.2V46H19.539Z" fill="white"/>
<path d="M36.2894 42.832C36.2894 43.328 36.2174 43.784 36.0734 44.2C35.9294 44.608 35.7214 44.96 35.4494 45.256C35.1774 45.544 34.8494 45.768 34.4654 45.928C34.0894 46.088 33.6654 46.168 33.1934 46.168C32.7294 46.168 32.3054 46.088 31.9214 45.928C31.5454 45.768 31.2214 45.544 30.9494 45.256C30.6774 44.96 30.4654 44.608 30.3134 44.2C30.1614 43.784 30.0854 43.328 30.0854 42.832C30.0854 42.336 30.1614 41.884 30.3134 41.476C30.4734 41.068 30.6894 40.72 30.9614 40.432C31.2414 40.144 31.5694 39.92 31.9454 39.76C32.3294 39.6 32.7454 39.52 33.1934 39.52C33.6494 39.52 34.0654 39.6 34.4414 39.76C34.8254 39.92 35.1534 40.144 35.4254 40.432C35.6974 40.72 35.9094 41.068 36.0614 41.476C36.2134 41.884 36.2894 42.336 36.2894 42.832ZM34.4654 42.832C34.4654 42.28 34.3534 41.848 34.1294 41.536C33.9134 41.216 33.6014 41.056 33.1934 41.056C32.7854 41.056 32.4694 41.216 32.2454 41.536C32.0214 41.848 31.9094 42.28 31.9094 42.832C31.9094 43.384 32.0214 43.824 32.2454 44.152C32.4694 44.472 32.7854 44.632 33.1934 44.632C33.6014 44.632 33.9134 44.472 34.1294 44.152C34.3534 43.824 34.4654 43.384 34.4654 42.832Z" fill="white"/>
<path d="M41.3945 38.116L43.1825 37.828V39.688H45.3305V41.176H43.1825V43.396C43.1825 43.772 43.2465 44.072 43.3745 44.296C43.5105 44.52 43.7785 44.632 44.1785 44.632C44.3705 44.632 44.5665 44.616 44.7665 44.584C44.9745 44.544 45.1625 44.492 45.3305 44.428L45.5825 45.82C45.3665 45.908 45.1265 45.984 44.8625 46.048C44.5985 46.112 44.2745 46.144 43.8905 46.144C43.4025 46.144 42.9985 46.08 42.6785 45.952C42.3585 45.816 42.1025 45.632 41.9105 45.4C41.7185 45.16 41.5825 44.872 41.5025 44.536C41.4305 44.2 41.3945 43.828 41.3945 43.42V38.116Z" fill="white"/>
<path d="M56.2362 42.832C56.2362 43.328 56.1642 43.784 56.0202 44.2C55.8762 44.608 55.6682 44.96 55.3962 45.256C55.1242 45.544 54.7962 45.768 54.4122 45.928C54.0362 46.088 53.6122 46.168 53.1402 46.168C52.6762 46.168 52.2522 46.088 51.8682 45.928C51.4922 45.768 51.1682 45.544 50.8962 45.256C50.6242 44.96 50.4122 44.608 50.2602 44.2C50.1082 43.784 50.0322 43.328 50.0322 42.832C50.0322 42.336 50.1082 41.884 50.2602 41.476C50.4202 41.068 50.6362 40.72 50.9082 40.432C51.1882 40.144 51.5162 39.92 51.8922 39.76C52.2762 39.6 52.6922 39.52 53.1402 39.52C53.5962 39.52 54.0122 39.6 54.3882 39.76C54.7722 39.92 55.1002 40.144 55.3722 40.432C55.6442 40.72 55.8562 41.068 56.0082 41.476C56.1602 41.884 56.2362 42.336 56.2362 42.832ZM54.4122 42.832C54.4122 42.28 54.3002 41.848 54.0762 41.536C53.8602 41.216 53.5482 41.056 53.1402 41.056C52.7322 41.056 52.4162 41.216 52.1922 41.536C51.9682 41.848 51.8562 42.28 51.8562 42.832C51.8562 43.384 51.9682 43.824 52.1922 44.152C52.4162 44.472 52.7322 44.632 53.1402 44.632C53.5482 44.632 53.8602 44.472 54.0762 44.152C54.3002 43.824 54.4122 43.384 54.4122 42.832Z" fill="white"/>
<path d="M62.9252 42.64C62.9252 43.64 63.3292 44.14 64.1372 44.14C64.3212 44.14 64.4932 44.116 64.6532 44.068C64.8132 44.02 64.9492 43.964 65.0612 43.9V41.044C64.9732 41.028 64.8692 41.016 64.7492 41.008C64.6292 40.992 64.4892 40.984 64.3292 40.984C63.8572 40.984 63.5052 41.14 63.2732 41.452C63.0412 41.764 62.9252 42.16 62.9252 42.64ZM66.8492 45.208C66.8492 46.24 66.5852 47.004 66.0572 47.5C65.5372 48.004 64.7292 48.256 63.6332 48.256C63.2492 48.256 62.8652 48.22 62.4812 48.148C62.0972 48.084 61.7412 47.996 61.4132 47.884L61.7252 46.384C62.0052 46.496 62.2972 46.584 62.6012 46.648C62.9132 46.712 63.2652 46.744 63.6572 46.744C64.1692 46.744 64.5292 46.632 64.7372 46.408C64.9532 46.184 65.0612 45.896 65.0612 45.544V45.316C64.8692 45.404 64.6692 45.472 64.4612 45.52C64.2612 45.56 64.0412 45.58 63.8012 45.58C62.9292 45.58 62.2612 45.324 61.7972 44.812C61.3332 44.292 61.1012 43.568 61.1012 42.64C61.1012 42.176 61.1732 41.756 61.3172 41.38C61.4612 40.996 61.6692 40.668 61.9412 40.396C62.2212 40.124 62.5612 39.916 62.9612 39.772C63.3612 39.62 63.8132 39.544 64.3172 39.544C64.5332 39.544 64.7532 39.556 64.9772 39.58C65.2092 39.596 65.4372 39.62 65.6612 39.652C65.8852 39.684 66.0972 39.724 66.2972 39.772C66.5052 39.812 66.6892 39.856 66.8492 39.904V45.208Z" fill="white"/>
<path d="M76.1102 41.272C75.9502 41.232 75.7622 41.192 75.5462 41.152C75.3302 41.104 75.0982 41.08 74.8502 41.08C74.7382 41.08 74.6022 41.092 74.4422 41.116C74.2902 41.132 74.1742 41.152 74.0942 41.176V46H72.3062V40.024C72.6262 39.912 73.0022 39.808 73.4342 39.712C73.8742 39.608 74.3622 39.556 74.8982 39.556C74.9942 39.556 75.1102 39.564 75.2462 39.58C75.3822 39.588 75.5182 39.604 75.6542 39.628C75.7902 39.644 75.9262 39.668 76.0622 39.7C76.1982 39.724 76.3142 39.756 76.4102 39.796L76.1102 41.272Z" fill="white"/>
<path d="M83.4435 44.752C83.6195 44.752 83.7875 44.748 83.9475 44.74C84.1075 44.732 84.2355 44.72 84.3315 44.704V43.348C84.2595 43.332 84.1515 43.316 84.0075 43.3C83.8635 43.284 83.7315 43.276 83.6115 43.276C83.4435 43.276 83.2835 43.288 83.1315 43.312C82.9875 43.328 82.8595 43.364 82.7475 43.42C82.6355 43.476 82.5475 43.552 82.4835 43.648C82.4195 43.744 82.3875 43.864 82.3875 44.008C82.3875 44.288 82.4795 44.484 82.6635 44.596C82.8555 44.7 83.1155 44.752 83.4435 44.752ZM83.2995 39.52C83.8275 39.52 84.2675 39.58 84.6195 39.7C84.9715 39.82 85.2515 39.992 85.4595 40.216C85.6755 40.44 85.8275 40.712 85.9155 41.032C86.0035 41.352 86.0475 41.708 86.0475 42.1V45.82C85.7915 45.876 85.4355 45.94 84.9795 46.012C84.5235 46.092 83.9715 46.132 83.3235 46.132C82.9155 46.132 82.5435 46.096 82.2075 46.024C81.8795 45.952 81.5955 45.836 81.3555 45.676C81.1155 45.508 80.9315 45.292 80.8035 45.028C80.6755 44.764 80.6115 44.44 80.6115 44.056C80.6115 43.688 80.6835 43.376 80.8275 43.12C80.9795 42.864 81.1795 42.66 81.4275 42.508C81.6755 42.356 81.9595 42.248 82.2795 42.184C82.5995 42.112 82.9315 42.076 83.2755 42.076C83.5075 42.076 83.7115 42.088 83.8875 42.112C84.0715 42.128 84.2195 42.152 84.3315 42.184V42.016C84.3315 41.712 84.2395 41.468 84.0555 41.284C83.8715 41.1 83.5515 41.008 83.0955 41.008C82.7915 41.008 82.4915 41.032 82.1955 41.08C81.8995 41.12 81.6435 41.18 81.4275 41.26L81.1995 39.82C81.3035 39.788 81.4315 39.756 81.5835 39.724C81.7435 39.684 81.9155 39.652 82.0995 39.628C82.2835 39.596 82.4755 39.572 82.6755 39.556C82.8835 39.532 83.0915 39.52 83.2995 39.52Z" fill="white"/>
<path d="M95.4883 42.892C95.4883 42.34 95.3643 41.9 95.1163 41.572C94.8683 41.236 94.5003 41.068 94.0123 41.068C93.8523 41.068 93.7043 41.076 93.5683 41.092C93.4323 41.1 93.3203 41.112 93.2323 41.128V44.356C93.3443 44.428 93.4883 44.488 93.6643 44.536C93.8483 44.584 94.0323 44.608 94.2163 44.608C95.0643 44.608 95.4883 44.036 95.4883 42.892ZM97.3123 42.844C97.3123 43.332 97.2523 43.776 97.1323 44.176C97.0123 44.576 96.8363 44.92 96.6043 45.208C96.3723 45.496 96.0843 45.72 95.7403 45.88C95.3963 46.04 95.0003 46.12 94.5523 46.12C94.3043 46.12 94.0723 46.096 93.8563 46.048C93.6403 46 93.4323 45.932 93.2323 45.844V48.22H91.4443V39.904C91.6043 39.856 91.7883 39.812 91.9963 39.772C92.2043 39.724 92.4203 39.684 92.6443 39.652C92.8763 39.62 93.1083 39.596 93.3403 39.58C93.5803 39.556 93.8083 39.544 94.0243 39.544C94.5443 39.544 95.0083 39.624 95.4163 39.784C95.8243 39.936 96.1683 40.156 96.4483 40.444C96.7283 40.724 96.9404 41.068 97.0844 41.476C97.2364 41.884 97.3123 42.34 97.3123 42.844Z" fill="white"/>
<path d="M102.467 46V36.976L104.255 36.688V39.712C104.375 39.672 104.527 39.636 104.711 39.604C104.903 39.564 105.087 39.544 105.263 39.544C105.775 39.544 106.199 39.616 106.535 39.76C106.879 39.896 107.151 40.092 107.351 40.348C107.559 40.604 107.703 40.908 107.783 41.26C107.871 41.612 107.915 42.004 107.915 42.436V46H106.127V42.652C106.127 42.076 106.051 41.668 105.899 41.428C105.755 41.188 105.483 41.068 105.083 41.068C104.923 41.068 104.771 41.084 104.627 41.116C104.491 41.14 104.367 41.168 104.255 41.2V46H102.467Z" fill="white"/>
<path d="M113.013 42.892C113.013 42.332 113.097 41.844 113.265 41.428C113.441 41.004 113.669 40.652 113.949 40.372C114.229 40.092 114.549 39.88 114.909 39.736C115.277 39.592 115.653 39.52 116.037 39.52C116.933 39.52 117.641 39.796 118.161 40.348C118.681 40.892 118.941 41.696 118.941 42.76C118.941 42.864 118.937 42.98 118.929 43.108C118.921 43.228 118.913 43.336 118.905 43.432H114.849C114.889 43.8 115.061 44.092 115.365 44.308C115.669 44.524 116.077 44.632 116.589 44.632C116.917 44.632 117.237 44.604 117.549 44.548C117.869 44.484 118.129 44.408 118.329 44.32L118.569 45.772C118.473 45.82 118.345 45.868 118.185 45.916C118.025 45.964 117.845 46.004 117.645 46.036C117.453 46.076 117.245 46.108 117.021 46.132C116.797 46.156 116.573 46.168 116.349 46.168C115.781 46.168 115.285 46.084 114.861 45.916C114.445 45.748 114.097 45.52 113.817 45.232C113.545 44.936 113.341 44.588 113.205 44.188C113.077 43.788 113.013 43.356 113.013 42.892ZM117.213 42.208C117.205 42.056 117.177 41.908 117.129 41.764C117.089 41.62 117.021 41.492 116.925 41.38C116.837 41.268 116.721 41.176 116.577 41.104C116.441 41.032 116.269 40.996 116.061 40.996C115.861 40.996 115.689 41.032 115.545 41.104C115.401 41.168 115.281 41.256 115.185 41.368C115.089 41.48 115.013 41.612 114.957 41.764C114.909 41.908 114.873 42.056 114.849 42.208H117.213Z" fill="white"/>
<path d="M127.905 41.272C127.745 41.232 127.557 41.192 127.341 41.152C127.125 41.104 126.893 41.08 126.645 41.08C126.533 41.08 126.397 41.092 126.237 41.116C126.085 41.132 125.969 41.152 125.889 41.176V46H124.101V40.024C124.421 39.912 124.797 39.808 125.229 39.712C125.669 39.608 126.157 39.556 126.693 39.556C126.789 39.556 126.905 39.564 127.041 39.58C127.177 39.588 127.313 39.604 127.449 39.628C127.585 39.644 127.721 39.668 127.857 39.7C127.993 39.724 128.109 39.756 128.205 39.796L127.905 41.272Z" fill="white"/>
</svg>
